<?xml version="1.0" encoding="UTF-8"?>
<svg id="Layer_1" xmlns="http://www.w3.org/2000/svg" version="1.1" viewBox="0 0 1200 335">
  <!-- Generator: Adobe Illustrator 29.8.4, SVG Export Plug-In . SVG Version: 2.1.1 Build 6)  -->
  <defs>
    <style>
      .st0 {
        fill: #10253d;
      }
    </style>
  </defs>
  <path class="st0" d="M283.7,110.2l-12.6-2c-20.7-3.3-41.7-5.6-62.7-6.9v-1c2.6-1.4,4-3.1,4-4.7s-2.8-4.6-7.7-6.4c-1-.4-1.8-1.3-2.1-2.3-4.5-13.1-15.9-22.5-29.1-25.5v-1.1c0-.6-.4-1.1-1-1.2-.8-.2-1.6-.3-2.5-.4,1.9-1.6,2.8-4,2.3-6.5-.7-3.5-4-5.8-7.6-5.8s-6.9,2.4-7.6,5.8c-.5,2.5.4,4.9,2.3,6.5-.8,0-1.7.2-2.5.4-.6,0-1,.7-1,1.2v1.1c-13.1,3-24.6,12.4-29.1,25.5-.4,1-1.1,1.9-2.2,2.3-4.9,1.8-7.7,4.1-7.7,6.4s1.4,3.3,4,4.7v1c-21,1.3-42,3.7-62.7,6.9l-12.6,2c-2.4.4-4.1,2.4-4.1,4.8v161.4c0,2.4,1.7,4.4,4.1,4.8l12.6,2c14.3,2.3,28.8,4,43.3,5.4h0c.8,0,1.6.2,2.4.2,1.6.1,3-.8,3.7-2.2h0s18.4-56.6,109.6-45.4c.3.2.6.6.6,1l3.3,43c.2,2,1.9,3.6,4,3.4h.8c15.1-1.3,30.1-3.1,45-5.5l12.6-2c2.4-.4,4.1-2.4,4.1-4.8V115c0-2.4-1.7-4.4-4.1-4.8h.2ZM208.4,125.8c0-.3.3-.6.7-.5,5.6,1.3,9.1,2.6,10.4,3.7h0c-.9.8-3.5,2.2-10.4,3.8-.3,0-.7-.2-.7-.5v-6.4h0ZM230.2,206.7c-2,.4-4.2.8-6.6,1.1-.7.1-1.4-.4-1.4-1.2l-.8-14.3c0-.8.6-1.4,1.4-1.3.9.1,1.7.3,2.5.4,1.8.3,3.4.6,4.9.9.6.1,1,.6,1,1.2v11.9c0,.6-.4,1.1-1,1.2h0ZM231.2,214.3v15.9c0,.8-.7,1.4-1.4,1.2-1.7-.3-3.5-.6-5.3-.9-.6,0-1-.6-1.1-1.1l-.8-14.1c0-.6.4-1.2,1.1-1.3,1.8-.3,3.9-.6,6.1-1,.8-.1,1.5.4,1.5,1.2h-.1ZM99.6,213c2,.4,4.1.7,6.2,1,.6.1,1.1.6,1.1,1.3l-.8,14.1c0,.6-.5,1.1-1.1,1.1-1.9.3-3.7.6-5.5.9-.8.1-1.4-.4-1.4-1.2v-16.1c0-.8.7-1.4,1.4-1.2h.1ZM98.1,205.4v-11.8c0-.6.4-1.1,1-1.2,1.6-.3,3.3-.6,5.1-.9.8-.1,1.7-.3,2.5-.4.8-.1,1.5.5,1.4,1.3l-.8,14.3c0,.7-.7,1.3-1.4,1.2-2.5-.4-4.7-.8-6.8-1.2-.6-.1-1-.6-1-1.2h0ZM158.2,147.6v-24.9c0-.7.5-1.3,1.2-1.3h10.5c.7,0,1.2.6,1.2,1.3v24.9c0,.7-.6,1.3-1.3,1.2h-10.5c-.7,0-1.3-.6-1.3-1.2h.2ZM187.3,148.3c0,.7-.6,1.3-1.3,1.2-3.4-.2-6.9-.4-10.5-.6-.7,0-1.2-.6-1.2-1.2v-24.9c0-.7.6-1.3,1.3-1.3,3.8,0,7.3.3,10.5.6.7,0,1.2.6,1.2,1.3v24.9h0ZM155.1,147.7c0,.7-.5,1.2-1.2,1.2-3.6.1-7.1.3-10.5.6-.7,0-1.3-.5-1.3-1.2v-24.9c0-.7.5-1.2,1.2-1.3,3.3-.2,6.8-.4,10.5-.6.7,0,1.3.6,1.3,1.3v24.9h0ZM129.1,226.6v-36.8c0-.7.5-1.2,1.2-1.3,6.1-.4,12.6-.8,19.2-1,.7,0,1.3.6,1.3,1.3v36.9c0,.7-.6,1.2-1.2,1.3-6.6.2-13,.5-19.1.9-.7,0-1.3-.5-1.3-1.3h0ZM153.8,225.5v-36.9c0-.7.6-1.3,1.2-1.3h19.2c.7,0,1.2.6,1.2,1.3v36.9c0,.7-.6,1.3-1.3,1.3h-19.1c-.7,0-1.3-.6-1.3-1.3h.1ZM126,227c0,.7-.5,1.2-1.2,1.3-3.8.3-7.6.7-11.1,1.1-.8,0-1.4-.5-1.4-1.3l2.1-37c0-.6.5-1.1,1.1-1.2,2.9-.3,6-.6,9.1-.9.7,0,1.4.5,1.4,1.3v36.8h0ZM121,132.1c0,.4-.3.6-.7.5-5.7-1.3-8.5-2.5-9.7-3.3-.3-.2-.3-.7,0-.9,1.6-1,4.9-2.1,9.8-3.2.3,0,.7.2.7.5v6.4h-.1ZM110.9,136.3c2.4.9,5.4,1.8,9.1,2.6.6.1,1,.6,1,1.2v11.4c0,.6-.4,1.1-1,1.2-3.6.8-6.7,1.7-9.1,2.6-.5.2-1.1-.2-1.1-.7v-17.5c0-.6.6-.9,1.1-.7h0ZM178.6,225.7v-36.9c0-.7.6-1.3,1.3-1.3,6.6.2,13.1.5,19.2,1,.7,0,1.2.6,1.2,1.3v36.8c0,.7-.6,1.3-1.3,1.3-6.1-.4-12.5-.8-19.1-.9-.7,0-1.2-.6-1.2-1.3h0ZM215.1,191.1l2.1,37c0,.8-.6,1.4-1.4,1.3-3.6-.4-7.3-.8-11.2-1.1-.7,0-1.2-.6-1.2-1.3v-36.8c0-.7.6-1.3,1.4-1.3,3.2.3,6.2.6,9.2.9.6,0,1.1.6,1.1,1.2h0ZM209.4,152.7c-.6-.1-1-.6-1-1.2v-11.4c0-.6.4-1.1,1-1.2,3.6-.8,6.6-1.6,9-2.5.5-.2,1.1.2,1.1.7v17.4c0,.6-.6.9-1.1.7-2.4-.9-5.4-1.8-9-2.6h0ZM211.7,160.7c1,.3,1.7,1.2,1.8,2.2l1.1,19.8c0,.6-.5,1.1-1.1,1-22.9-2.5-46.9-2.5-48.8-2.5s-25.9,0-48.8,2.5c-.6,0-1.1-.4-1.1-1v-.6s10.2-25.6,64.8-25.6h1.1c13.1.6,24.1,2.1,31,4.2h0ZM190.4,148.8v-24.9c0-.8.7-1.3,1.4-1.3,3.5.3,6.6.7,9.5,1.2.6,0,1.1.6,1.1,1.3v24.9c0,.8-.7,1.4-1.4,1.2-2.9-.4-6.1-.8-9.4-1.1-.6,0-1.1-.6-1.1-1.2h-.1ZM127.2,97.5c0-1.2.8-2.2,2-2.6,8.7-2.4,21.4-4,35.6-4s26.9,1.5,35.6,4c1.2.3,2,1.4,2,2.6v18.8c0,.8-.7,1.3-1.4,1.2-10.3-1.5-22.9-2.3-36.1-2.3s-25.8.8-36.1,2.3c-.8,0-1.4-.5-1.4-1.2v-18.8h-.2ZM127.2,125c0-.6.4-1.2,1.1-1.3,2.8-.4,5.9-.8,9.3-1.2.8,0,1.4.5,1.4,1.3v24.9c0,.6-.5,1.2-1.1,1.2-3.3.3-6.4.7-9.2,1.1-.8.1-1.4-.5-1.4-1.2v-24.9h0ZM102.5,279.1c0,.9-.9,1.5-1.8,1.5-13.8-1.3-27.6-3-41.2-5.2l-8.6-1.4c-.8-.1-1.4-.8-1.4-1.6V119c0-.8.6-1.5,1.4-1.6l8.6-1.4c20.3-3.2,40.8-5.5,61.4-6.8v9.6c-12.1,2.4-17.5,5.6-17.5,10.1s.9,3.5,2.8,4.9c.3.2.5.6.5,1v21.9c0,.4-.2.8-.5,1-1.1.9-1.7,1.9-1.7,2.8s.5,1.7,1.4,2.5c.4,1.1,1.7,2.1,3.8,3.1l-1,18.4c-19,2.6-35.6,7.1-35.6,14.9s1.1,3.8,2.7,5.2c.5.4.8,1.1.8,1.7v30.9c0,.7-.3,1.4-.9,1.8-1.4,1.1-2.2,2.2-2.2,3.3,0,1.4.8,2.7,2.6,4v1.7c0,4.1,10,7.8,26.1,10.4,1.3.2,2.2,1.4,2.1,2.7l-1.6,17.9h-.2ZM93.5,205.4c-9.1-2.2-12.9-4.3-14-5.5v-.9h0c1.1-1.2,4.8-3.3,14.1-5.5.8-.2,1.5.4,1.5,1.2v9.4c0,.8-.8,1.4-1.5,1.2h0ZM95.1,213.1v18.2c0,.6-.4,1.1-1,1.2-5.2,1.1-9.5,2.3-12.9,3.6-.8.3-1.7-.3-1.7-1.1v-25.9c0-.9.9-1.5,1.7-1.1,1,.4,1.9.8,2.8,1.1,2.8,1,6.2,1.9,10,2.8.6.1,1,.6,1,1.2h0ZM279.9,272.4c0,.8-.6,1.5-1.4,1.6l-8.6,1.4c-13.6,2.2-27.4,3.9-41.2,5.2-.9,0-1.7-.6-1.8-1.5l-1.6-17.9c-.1-1.3.8-2.5,2.1-2.7,16.1-2.7,26.1-6.4,26.1-10.4v-1.7c1.8-1.3,2.7-2.6,2.6-4,0-1.2-.9-2.3-2.4-3.4-.6-.4-.9-1.1-.9-1.8v-30.7c0-.6.3-1.3.8-1.7,1.8-1.5,2.8-3.3,2.8-5.3,0-7.9-16.6-12.4-35.6-14.9l-1-18.4c2-1,3.3-2,3.8-3.1.9-.8,1.4-1.6,1.4-2.5s-.6-2-1.9-2.9c-.3-.2-.5-.6-.5-1.1v-21.7c0-.4.2-.8.6-1.1,1.9-1.4,2.9-3.1,2.9-5,0-4.6-5.4-7.7-17.5-10.1v-9.6c20.6,1.3,41.1,3.6,61.4,6.8l8.6,1.4c.8,0,1.4.8,1.4,1.6v153.4h-.1ZM235.2,212c4.5-1,9.1-2.2,12.9-3.9.8-.4,1.7.2,1.7,1.1v25.7c0,.9-.9,1.5-1.7,1.2-3.4-1.3-7.7-2.5-12.9-3.6-.6-.1-1-.6-1-1.2v-18.1c0-.6.4-1.1,1-1.2h0ZM234.3,204.3v-9.5c0-.8.8-1.4,1.5-1.2,9.3,2.2,13.1,4.4,14.2,5.6h-.2v1c-1.3,1.2-5.2,3.3-14,5.4-.8.2-1.5-.4-1.5-1.2h0Z"/>
  <g>
    <path class="st0" d="M380,258.8v14h-6.7v-38.4h12.2c8.5,0,13.9,4.4,13.9,12.2s-5.4,12.2-13.9,12.2h-5.5ZM380,240.1v13.1h5.8c4.2,0,6.8-2.3,6.8-6.5s-2.8-6.6-7.1-6.6h-5.5,0Z"/>
    <path class="st0" d="M432.2,234.4c8.7,0,14.2,4.4,14.2,12.2s-3.4,9.4-7.6,10.8l8.4,15.4h-7.2l-7.4-14.2h-6.8v14.2h-6.6v-38.4h13ZM425.8,240.1v13.1h6.7c4.3,0,7.1-2.3,7.1-6.5s-2.9-6.6-7.4-6.6h-6.4Z"/>
    <path class="st0" d="M468,272.9v-38.4h6.7v38.4h-6.7Z"/>
    <path class="st0" d="M511.9,273.4h-.2l-18.4-39h7.3l5.2,11.5c2.3,5.2,4.2,9.4,6,14,1.7-4.1,3.9-9.1,6.1-14l5.1-11.5h7.3l-18.3,39h0Z"/>
    <path class="st0" d="M558.3,233.8h.2l18.2,39h-7l-3.4-7.6h-15.7l-3.4,7.6h-7l18.2-39h0ZM564.1,260.2c-2.2-4.9-4-9.2-5.6-13.6-1.7,4-3.6,8.9-5.7,13.6h11.3Z"/>
    <path class="st0" d="M605.8,240.1v32.8h-6.7v-32.8h-11.2v-5.7h29.1v5.7h-11.2,0Z"/>
    <path class="st0" d="M636.2,272.9v-38.4h24.2v5.7h-17.5v10.6h14.8v5.5h-14.8v11h18.2v5.7h-25,0Z"/>
    <path class="st0" d="M714.5,234.4l5.7,14.5c1.4,3.6,2.6,7,3.5,9.7.8-2.1,2.1-5.2,3.4-8.4l2.3-5.6,4.2-9.8h.2c3.5,8.2,7.7,17.8,9.9,23.8,1.8-5.1,6.3-16.7,9.1-24.2h7.4l-16.4,39h-.2l-7.9-18.9c-.7-1.7-1.5-3.5-2.1-5.2l-2,5.2-8,18.9h-.2l-16.3-39h7.4,0Z"/>
    <path class="st0" d="M779.4,272.9v-38.4h24.2v5.7h-17.5v10.6h14.8v5.5h-14.8v11h18.2v5.7h-25,0Z"/>
    <path class="st0" d="M840.2,233.8h.2l18.2,39h-7l-3.4-7.6h-15.7l-3.4,7.6h-7l18.2-39h0ZM845.9,260.2c-2.2-4.9-4-9.2-5.6-13.6-1.7,4-3.6,8.9-5.7,13.6h11.3Z"/>
    <path class="st0" d="M877.5,272.9v-38.4h6.7v32.8h15.6v5.7h-22.4.1Z"/>
    <path class="st0" d="M929.4,240.1v32.8h-6.7v-32.8h-11.2v-5.7h29.1v5.7h-11.2,0Z"/>
    <path class="st0" d="M984,272.9v-16.6h-17.4v16.6h-6.7v-38.4h6.7v16.2h17.4v-16.2h6.7v38.4h-6.7Z"/>
  </g>
  <g>
    <path class="st0" d="M390.9,134.1v65.5h-17.1v-65.5h-22.3v-14.3h61.7v14.3h-22.4,0Z"/>
    <path class="st0" d="M450,119.8l10.9,27.1c2.7,6.6,5,13,6.6,18.1,1.2-2.9,3.7-9.1,5.8-14l4.4-10.1,9.2-20.6h.7c6.8,15.2,15.2,33.4,19.3,44.7,2.9-7.1,13-33,17.6-45.2h19.1l-35.8,81h-.8l-15.6-35.7c-1.4-3.1-2.9-6.4-4.1-9.5-1.2,3.1-2.7,6.4-4,9.5l-15.7,35.7h-.8l-35.7-81h19,0Z"/>
    <path class="st0" d="M597.1,118.2c24,0,41.8,18.4,41.8,41.4s-17.6,41.4-41.8,41.4-41.8-18.2-41.8-41.4,17.6-41.4,41.8-41.4ZM597.1,185.5c14.4,0,24.6-11.5,24.6-25.8s-10.2-25.8-24.6-25.8-24.6,11.6-24.6,25.8,10.2,25.8,24.6,25.8h0Z"/>
    <path class="st0" d="M712.9,199.6v-79.8h17.1v65.5h30.7v14.3h-47.8Z"/>
    <path class="st0" d="M787.9,199.6v-79.8h17.1v79.8h-17.1Z"/>
    <path class="st0" d="M875.2,201.1c-25.3,0-42.9-18.1-42.9-41.4s17.8-41.4,42.5-41.4,20.5,3.3,25,5.4v15.7c-5.2-2.4-13.2-5.5-23.9-5.5-16.5,0-26.5,11.6-26.5,25.8s10,25.9,25.7,25.9,8.1-.7,10.9-1.6v-21.3h16.3v32.2c-7.1,3.7-17.4,6.1-27.2,6.1h.1Z"/>
    <path class="st0" d="M982.3,199.6v-33.4h-32.9v33.4h-17.1v-79.8h17.1v32.2h32.9v-32.2h17.1v79.8h-17.1Z"/>
    <path class="st0" d="M1062.6,134.1v65.5h-17.1v-65.5h-22.3v-14.3h61.7v14.3h-22.4,0Z"/>
    <path class="st0" d="M1104.9,196.6v-16.4c5.5,2.9,12.8,5.3,20.1,5.8,2.6.1,5,0,7.1-.4,6.1-.9,9.6-3.2,9.6-7.1s-4.8-8.1-15.7-12.1c-14-5.1-22.2-11-22.2-24.8s11.8-23.3,28.9-23.3,15.8,1.8,20.8,4v15.7c-4.7-2.8-12.2-4.9-19.5-4.9s-13.5,3.2-13.5,8.3,4.3,7.9,15.2,12c14,5.4,22.6,11.3,22.6,24.7s-10.9,23.1-29.7,23.1-17.9-2-23.7-4.5h0Z"/>
  </g>
</svg>