<?xml version="1.0" encoding="UTF-8"?>
<svg id="Layer_1" xmlns="http://www.w3.org/2000/svg" version="1.1" viewBox="0 0 400 400">
  <!-- Generator: Adobe Illustrator 29.8.4, SVG Export Plug-In . SVG Version: 2.1.1 Build 6)  -->
  <defs>
    <style>
      .st0 {
        fill: #10253d;
      }
    </style>
  </defs>
  <path class="st0" d="M358.5,123.7l-16.8-2.7c-27.6-4.4-55.5-7.4-83.5-9.2v-1.3c3.4-1.9,5.3-4.1,5.3-6.3s-3.8-6.1-10.3-8.6c-1.4-.5-2.4-1.7-2.9-3.1-6-17.4-21.2-30-38.7-34v-1.5c0-.8-.6-1.5-1.3-1.7-1.1-.2-2.2-.4-3.3-.5,2.5-2.2,3.7-5.4,3-8.7-.9-4.6-5.4-7.8-10.1-7.8s-9.2,3.2-10.1,7.8c-.7,3.3.6,6.5,3,8.7-1.1.1-2.2.3-3.3.5-.8.2-1.3.9-1.3,1.7v1.5c-17.5,4-32.7,16.5-38.7,34-.5,1.4-1.5,2.5-2.9,3.1-6.5,2.5-10.3,5.4-10.3,8.6s1.9,4.4,5.3,6.3v1.3c-28,1.8-55.9,4.9-83.5,9.2l-16.8,2.7c-3.1.5-5.4,3.2-5.4,6.4v215.1c0,3.2,2.3,5.8,5.4,6.3l16.8,2.7c19.1,3,38.4,5.4,57.7,7.2h0c1.1.1,2.1.2,3.2.3,2.1.2,4-1,4.9-2.9h0s24.5-75.3,146-60.4c.5.3.8.8.8,1.3l4.4,57.3c.2,2.7,2.6,4.8,5.3,4.5.3,0,.7,0,1,0h0c20.1-1.7,40.1-4.1,59.9-7.3l16.8-2.7c3.1-.5,5.4-3.2,5.4-6.3v-215.1c0-3.2-2.3-5.9-5.4-6.3h0ZM258.2,144.4c0-.5.5-.8.9-.7,7.5,1.7,12.1,3.5,13.8,4.9h0c-1.2,1-4.6,3-13.8,5-.5.1-.9-.2-.9-.7v-8.5h0ZM287.2,252.2c-2.7.5-5.6,1-8.9,1.5-1,.1-1.9-.6-1.9-1.6l-1.1-19c0-1.1.9-1.9,1.9-1.7,1.1.2,2.3.3,3.3.5,2.4.4,4.5.8,6.6,1.2.8.1,1.3.8,1.3,1.6v15.8c0,.8-.6,1.5-1.3,1.6h0ZM288.5,262.3v21.2c0,1-.9,1.8-1.9,1.6-2.3-.4-4.6-.8-7.1-1.2-.8-.1-1.4-.8-1.4-1.5l-1-18.8c0-.9.6-1.6,1.4-1.7,2.4-.3,5.2-.8,8.1-1.3,1-.2,1.9.6,1.9,1.6h0ZM113.2,260.6c2.6.5,5.4.9,8.3,1.4.8.1,1.5.9,1.4,1.7l-1.1,18.8c0,.8-.6,1.4-1.4,1.5-2.5.4-5,.8-7.3,1.2-1,.2-1.9-.6-1.9-1.6v-21.4c0-1,.9-1.8,1.9-1.6h0ZM111.3,250.5v-15.8c0-.8.6-1.5,1.3-1.6,2.1-.4,4.3-.8,6.8-1.2,1.1-.2,2.2-.3,3.3-.5,1-.2,2,.7,1.9,1.7l-1.1,19c0,1-1,1.7-1.9,1.6-3.3-.5-6.3-1-9-1.6-.8-.1-1.3-.8-1.3-1.6h0ZM191.2,173.5v-33.1c0-.9.7-1.7,1.7-1.7,2.3,0,4.7,0,7.1,0s4.7,0,6.9,0c.9,0,1.7.8,1.7,1.7v33.1c0,.9-.8,1.7-1.7,1.7-2.3,0-4.6,0-6.9,0s-4.7,0-7.1,0c-.9,0-1.7-.7-1.7-1.7h0ZM230,174.4c0,1-.8,1.7-1.8,1.7-4.5-.3-9.1-.6-14-.8-.9,0-1.6-.8-1.6-1.7v-33.1c0-1,.8-1.7,1.8-1.7,5,.2,9.7.4,14,.7.9,0,1.6.8,1.6,1.7v33.2h0ZM187.1,173.7c0,.9-.7,1.6-1.6,1.7-4.8.2-9.5.4-14,.8-1,0-1.8-.7-1.8-1.7v-33.2c0-.9.7-1.6,1.6-1.7,4.4-.3,9-.6,14-.7,1,0,1.8.7,1.8,1.7v33.1h0ZM152.5,278.7v-49.1c0-.9.7-1.6,1.6-1.7,8.2-.6,16.8-1,25.6-1.3,1,0,1.7.7,1.7,1.7v49.1c0,.9-.7,1.7-1.7,1.7-8.8.3-17.4.7-25.5,1.3-1,0-1.8-.7-1.8-1.7ZM185.5,277.3v-49.1c0-.9.7-1.7,1.7-1.7,4.2,0,8.6-.1,12.9-.1s8.5,0,12.7.1c.9,0,1.7.8,1.7,1.7v49.1c0,.9-.8,1.7-1.7,1.7-4.2,0-8.4-.1-12.7-.1s-8.6,0-12.8.1c-.9,0-1.7-.7-1.7-1.7ZM148.4,279.3c0,.9-.7,1.6-1.6,1.7-5.1.4-10.1.9-14.7,1.5-1,.1-1.9-.7-1.9-1.8l2.7-49.3c0-.8.7-1.5,1.5-1.6,3.9-.5,7.9-.9,12.1-1.2,1,0,1.9.7,1.9,1.7v49ZM141.8,152.9c0,.5-.5.8-.9.7-7.6-1.7-11.3-3.3-13-4.4-.5-.3-.5-.9,0-1.2,2.1-1.3,6.5-2.9,13-4.3.5-.1.9.2.9.7v8.5h0ZM128.3,158.5c3.2,1.3,7.2,2.4,12.1,3.4.8.2,1.3.8,1.3,1.6v15.1c0,.8-.6,1.5-1.3,1.6-4.8,1-8.9,2.2-12.1,3.5-.7.3-1.4-.2-1.4-1v-23.3c0-.7.7-1.2,1.4-1h0ZM218.4,277.5v-49.1c0-1,.8-1.7,1.7-1.7,8.8.3,17.4.7,25.6,1.3.9,0,1.6.8,1.6,1.7v49.1c0,1-.8,1.7-1.8,1.7-8.1-.6-16.6-1-25.5-1.3-.9,0-1.7-.8-1.7-1.7h0ZM267,231.4l2.7,49.3c0,1.1-.8,1.9-1.9,1.8-4.8-.6-9.7-1.1-14.9-1.5-.9,0-1.6-.8-1.6-1.7v-49c0-1,.9-1.8,1.9-1.7,4.2.4,8.3.8,12.3,1.3.8,0,1.4.8,1.5,1.6h0ZM259.5,180.3c-.8-.2-1.3-.8-1.3-1.6v-15.1c0-.8.6-1.5,1.3-1.6,4.8-1,8.8-2.1,11.9-3.3.7-.3,1.4.2,1.4,1v23.2c0,.7-.7,1.2-1.4,1-3.2-1.2-7.2-2.4-11.9-3.4h0ZM262.6,190.9c1.3.4,2.3,1.6,2.4,3l1.5,26.3c0,.8-.6,1.4-1.4,1.3-30.6-3.3-62.4-3.4-65-3.4s-34.4,0-65,3.4c-.8,0-1.5-.6-1.4-1.3v-.7s13.6-34.1,86.3-34.1h1.5c17.5.8,32.1,2.9,41.3,5.5ZM234.1,175.1v-33.2c0-1,.9-1.8,1.9-1.7,4.6.5,8.8,1,12.6,1.5.8.1,1.4.8,1.4,1.7v33.1c0,1-.9,1.8-1.9,1.7-3.9-.6-8.1-1.1-12.5-1.5-.9,0-1.5-.8-1.5-1.7h0ZM150,106.7c0-1.6,1.1-3,2.6-3.4,11.6-3.2,28.6-5.3,47.4-5.3s35.8,2,47.4,5.3c1.5.4,2.6,1.8,2.6,3.4v25.1c0,1-.9,1.8-1.9,1.7-13.7-2-30.5-3-48.1-3s-34.4,1.1-48.1,3c-1,.1-1.9-.6-1.9-1.7v-25.1h0ZM150,143.4c0-.8.6-1.5,1.4-1.7,3.7-.6,7.9-1.1,12.4-1.5,1,0,1.9.7,1.9,1.7v33.2c0,.9-.7,1.6-1.5,1.7-4.3.4-8.5.9-12.3,1.5-1,.1-1.9-.6-1.9-1.7v-33.1h0ZM117.2,348.6c-.1,1.2-1.2,2.1-2.3,1.9-18.4-1.7-36.7-4-54.9-6.9l-11.5-1.8c-1.1-.2-1.8-1.1-1.8-2.1v-204.4c0-1.1.8-2,1.8-2.1l11.5-1.8c27-4.3,54.4-7.3,81.8-9.1v12.8c-16.1,3.2-23.3,7.4-23.3,13.5s1.2,4.6,3.7,6.5c.4.3.7.8.7,1.4v29.1c0,.5-.3,1.1-.7,1.4-1.5,1.2-2.3,2.5-2.3,3.8s.6,2.3,1.8,3.3c.6,1.5,2.3,2.8,5,4.1l-1.4,24.5c-25.4,3.4-47.4,9.4-47.4,19.9s1.4,5.1,3.6,7c.7.6,1,1.4,1,2.3v41.1c0,.9-.4,1.8-1.1,2.4-1.8,1.4-2.9,2.9-3,4.4-.1,1.9,1.1,3.6,3.5,5.4v2.2c0,5.4,13.3,10.3,34.7,13.9,1.7.3,2.9,1.8,2.8,3.6l-2.1,23.8h0ZM105.1,250.5c-12.1-2.9-17.1-5.7-18.7-7.3v-1.2h0c1.4-1.5,6.4-4.4,18.7-7.4,1-.3,2.1.5,2.1,1.6v12.6c0,1.1-1,1.9-2.1,1.6h0ZM107.2,260.7v24.3c0,.8-.6,1.5-1.3,1.6-6.9,1.5-12.7,3.1-17.2,4.8-1.1.4-2.2-.4-2.2-1.5v-34.4c0-1.2,1.2-2,2.3-1.5,1.3.5,2.6,1,3.8,1.5,3.7,1.3,8.2,2.5,13.3,3.7.8.2,1.3.8,1.3,1.6h0ZM353.4,339.7c0,1.1-.8,2-1.8,2.1l-11.5,1.8c-18.2,2.9-36.5,5.2-54.9,6.9-1.2.1-2.2-.8-2.3-1.9l-2.1-23.8c-.2-1.7,1.1-3.3,2.8-3.6,21.4-3.6,34.7-8.5,34.7-13.9v-2.2c2.4-1.7,3.6-3.5,3.5-5.4-.1-1.6-1.2-3.1-3.1-4.5-.8-.6-1.2-1.5-1.2-2.4v-40.9c0-.9.3-1.7,1-2.3,2.3-2,3.7-4.4,3.7-7,0-10.5-22-16.5-47.4-19.9l-1.4-24.5c2.7-1.3,4.4-2.7,5-4.1,1.2-1.1,1.8-2.2,1.8-3.3s-.9-2.6-2.5-3.9c-.4-.3-.7-.9-.7-1.4v-28.9c0-.6.3-1.1.7-1.4,2.6-1.9,3.8-4.1,3.8-6.6,0-6.1-7.2-10.3-23.3-13.5v-12.8c27.4,1.8,54.8,4.8,81.8,9.1l11.5,1.8c1.1.2,1.8,1.1,1.8,2.1v204.4h0ZM293.9,259.3c6-1.3,12.1-3,17.1-5.2,1.1-.5,2.3.3,2.3,1.5v34.3c0,1.2-1.1,2-2.2,1.5-4.5-1.7-10.3-3.4-17.2-4.8-.8-.2-1.3-.8-1.3-1.6v-24.1c0-.8.5-1.4,1.3-1.6h0ZM292.6,249v-12.7c0-1.1,1-1.9,2.1-1.6,12.4,3,17.5,5.9,18.9,7.4h-.2v1.3c-1.7,1.6-6.9,4.4-18.7,7.2-1,.3-2.1-.6-2.1-1.6h0Z"/>
</svg>