<?xml version="1.0" encoding="UTF-8"?>
<svg id="Layer_1" xmlns="http://www.w3.org/2000/svg" version="1.1" viewBox="0 0 1200 335">
  <!-- Generator: Adobe Illustrator 29.8.4, SVG Export Plug-In . SVG Version: 2.1.1 Build 6)  -->
  <defs>
    <style>
      .st0 {
        fill: #10253d;
      }
    </style>
  </defs>
  <path class="st0" d="M281,110.1l-12.6-2c-20.7-3.3-41.7-5.6-62.7-6.9v-1c2.6-1.4,4-3.1,4-4.7s-2.8-4.6-7.7-6.4c-1-.4-1.8-1.3-2.1-2.3-4.5-13.1-15.9-22.5-29.1-25.5v-1.1c0-.6-.4-1.1-1-1.2-.8-.2-1.6-.3-2.5-.4,1.9-1.6,2.8-4,2.3-6.5-.7-3.5-4-5.8-7.6-5.8s-6.9,2.4-7.6,5.8c-.5,2.5.4,4.9,2.3,6.5-.8,0-1.7.2-2.5.4-.6,0-1,.7-1,1.2v1.1c-13.1,3-24.6,12.4-29.1,25.5-.4,1-1.1,1.9-2.2,2.3-4.9,1.8-7.7,4.1-7.7,6.4s1.4,3.3,4,4.7v1c-21,1.3-42,3.7-62.7,6.9l-12.6,2c-2.4.4-4.1,2.4-4.1,4.8v161.4c0,2.4,1.7,4.4,4.1,4.8l12.6,2c14.3,2.3,28.8,4,43.3,5.4h0c.8,0,1.6.2,2.4.2,1.6.1,3-.8,3.7-2.2h0s18.4-56.6,109.6-45.4c.3.2.6.6.6,1l3.3,43c.2,2,1.9,3.6,4,3.4h.8c15.1-1.3,30.1-3.1,45-5.5l12.6-2c2.4-.4,4.1-2.4,4.1-4.8V114.9c0-2.4-1.7-4.4-4.1-4.8h.2ZM205.7,125.7c0-.3.3-.6.7-.5,5.6,1.3,9.1,2.6,10.4,3.7h0c-.9.8-3.5,2.2-10.4,3.8-.3,0-.7-.2-.7-.5v-6.4h0ZM227.5,206.6c-2,.4-4.2.8-6.6,1.1-.7.1-1.4-.4-1.4-1.2l-.8-14.3c0-.8.6-1.4,1.4-1.3.9.1,1.7.3,2.5.4,1.8.3,3.4.6,4.9.9.6.1,1,.6,1,1.2v11.9c0,.6-.4,1.1-1,1.2h0ZM228.5,214.2v15.9c0,.8-.7,1.4-1.4,1.2-1.7-.3-3.5-.6-5.3-.9-.6,0-1-.6-1.1-1.1l-.8-14.1c0-.6.4-1.2,1.1-1.3,1.8-.3,3.9-.6,6.1-1,.8-.1,1.5.4,1.5,1.2h-.1ZM96.9,212.9c2,.4,4.1.7,6.2,1,.6.1,1.1.6,1.1,1.3l-.8,14.1c0,.6-.5,1.1-1.1,1.1-1.9.3-3.7.6-5.5.9-.8.1-1.4-.4-1.4-1.2v-16.1c0-.8.7-1.4,1.4-1.2h.1ZM95.4,205.3v-11.8c0-.6.4-1.1,1-1.2,1.6-.3,3.3-.6,5.1-.9.8-.1,1.7-.3,2.5-.4.8-.1,1.5.5,1.4,1.3l-.8,14.3c0,.7-.7,1.3-1.4,1.2-2.5-.4-4.7-.8-6.8-1.2-.6-.1-1-.6-1-1.2h0ZM155.5,147.5v-24.9c0-.7.5-1.3,1.2-1.3h10.5c.7,0,1.2.6,1.2,1.3v24.9c0,.7-.6,1.3-1.3,1.2h-10.5c-.7,0-1.3-.6-1.3-1.2h.2ZM184.6,148.2c0,.7-.6,1.3-1.3,1.2-3.4-.2-6.9-.4-10.5-.6-.7,0-1.2-.6-1.2-1.2v-24.9c0-.7.6-1.3,1.3-1.3,3.8,0,7.3.3,10.5.6.7,0,1.2.6,1.2,1.3v24.9h0ZM152.4,147.6c0,.7-.5,1.2-1.2,1.2-3.6.1-7.1.3-10.5.6-.7,0-1.3-.5-1.3-1.2v-24.9c0-.7.5-1.2,1.2-1.3,3.3-.2,6.8-.4,10.5-.6.7,0,1.3.6,1.3,1.3v24.9h0ZM126.4,226.5v-36.8c0-.7.5-1.2,1.2-1.3,6.1-.4,12.6-.8,19.2-1,.7,0,1.3.6,1.3,1.3v36.9c0,.7-.6,1.2-1.2,1.3-6.6.2-13,.5-19.1.9-.7,0-1.3-.5-1.3-1.3h0ZM151.1,225.4v-36.9c0-.7.6-1.3,1.2-1.3h19.2c.7,0,1.2.6,1.2,1.3v36.9c0,.7-.6,1.3-1.3,1.3h-19.1c-.7,0-1.3-.6-1.3-1.3h.1ZM123.3,226.9c0,.7-.5,1.2-1.2,1.3-3.8.3-7.6.7-11.1,1.1-.8,0-1.4-.5-1.4-1.3l2.1-37c0-.6.5-1.1,1.1-1.2,2.9-.3,6-.6,9.1-.9.7,0,1.4.5,1.4,1.3v36.8h0ZM118.3,132c0,.4-.3.6-.7.5-5.7-1.3-8.5-2.5-9.7-3.3-.3-.2-.3-.7,0-.9,1.6-1,4.9-2.1,9.8-3.2.3,0,.7.2.7.5v6.4h-.1ZM108.2,136.2c2.4.9,5.4,1.8,9.1,2.6.6.1,1,.6,1,1.2v11.4c0,.6-.4,1.1-1,1.2-3.6.8-6.7,1.7-9.1,2.6-.5.2-1.1-.2-1.1-.7v-17.5c0-.6.6-.9,1.1-.7h0ZM175.9,225.6v-36.9c0-.7.6-1.3,1.3-1.3,6.6.2,13.1.5,19.2,1,.7,0,1.2.6,1.2,1.3v36.8c0,.7-.6,1.3-1.3,1.3-6.1-.4-12.5-.8-19.1-.9-.7,0-1.2-.6-1.2-1.3h0ZM212.4,191l2.1,37c0,.8-.6,1.4-1.4,1.3-3.6-.4-7.3-.8-11.2-1.1-.7,0-1.2-.6-1.2-1.3v-36.8c0-.7.6-1.3,1.4-1.3,3.2.3,6.2.6,9.2.9.6,0,1.1.6,1.1,1.2h0ZM206.7,152.6c-.6-.1-1-.6-1-1.2v-11.4c0-.6.4-1.1,1-1.2,3.6-.8,6.6-1.6,9-2.5.5-.2,1.1.2,1.1.7v17.4c0,.6-.6.9-1.1.7-2.4-.9-5.4-1.8-9-2.6h0ZM209,160.6c1,.3,1.7,1.2,1.8,2.2l1.1,19.8c0,.6-.5,1.1-1.1,1-22.9-2.5-46.9-2.5-48.8-2.5s-25.9,0-48.8,2.5c-.6,0-1.1-.4-1.1-1v-.6s10.2-25.6,64.8-25.6h1.1c13.1.6,24.1,2.1,31,4.2h0ZM187.7,148.7v-24.9c0-.8.7-1.3,1.4-1.3,3.5.3,6.6.7,9.5,1.2.6,0,1.1.6,1.1,1.3v24.9c0,.8-.7,1.4-1.4,1.2-2.9-.4-6.1-.8-9.4-1.1-.6,0-1.1-.6-1.1-1.2h-.1ZM124.5,97.4c0-1.2.8-2.2,2-2.6,8.7-2.4,21.4-4,35.6-4s26.9,1.5,35.6,4c1.2.3,2,1.4,2,2.6v18.8c0,.8-.7,1.3-1.4,1.2-10.3-1.5-22.9-2.3-36.1-2.3s-25.8.8-36.1,2.3c-.8,0-1.4-.5-1.4-1.2v-18.8h-.2ZM124.5,124.9c0-.6.4-1.2,1.1-1.3,2.8-.4,5.9-.8,9.3-1.2.8,0,1.4.5,1.4,1.3v24.9c0,.6-.5,1.2-1.1,1.2-3.3.3-6.4.7-9.2,1.1-.8.1-1.4-.5-1.4-1.2v-24.9h0ZM99.8,279c0,.9-.9,1.5-1.8,1.5-13.8-1.3-27.6-3-41.2-5.2l-8.6-1.4c-.8-.1-1.4-.8-1.4-1.6V118.9c0-.8.6-1.5,1.4-1.6l8.6-1.4c20.3-3.2,40.8-5.5,61.4-6.8v9.6c-12.1,2.4-17.5,5.6-17.5,10.1s.9,3.5,2.8,4.9c.3.2.5.6.5,1v21.9c0,.4-.2.8-.5,1-1.1.9-1.7,1.9-1.7,2.8s.5,1.7,1.4,2.5c.4,1.1,1.7,2.1,3.8,3.1l-1,18.4c-19,2.6-35.6,7.1-35.6,14.9s1.1,3.8,2.7,5.2c.5.4.8,1.1.8,1.7v30.9c0,.7-.3,1.4-.9,1.8-1.4,1.1-2.2,2.2-2.2,3.3,0,1.4.8,2.7,2.6,4v1.7c0,4.1,10,7.8,26.1,10.4,1.3.2,2.2,1.4,2.1,2.7l-1.6,17.9h-.2ZM90.8,205.3c-9.1-2.2-12.9-4.3-14-5.5v-.9h0c1.1-1.2,4.8-3.3,14.1-5.5.8-.2,1.5.4,1.5,1.2v9.4c0,.8-.8,1.4-1.5,1.2h0ZM92.4,213v18.2c0,.6-.4,1.1-1,1.2-5.2,1.1-9.5,2.3-12.9,3.6-.8.3-1.7-.3-1.7-1.1v-25.9c0-.9.9-1.5,1.7-1.1,1,.4,1.9.8,2.8,1.1,2.8,1,6.2,1.9,10,2.8.6.1,1,.6,1,1.2h0ZM277.2,272.3c0,.8-.6,1.5-1.4,1.6l-8.6,1.4c-13.6,2.2-27.4,3.9-41.2,5.2-.9,0-1.7-.6-1.8-1.5l-1.6-17.9c-.1-1.3.8-2.5,2.1-2.7,16.1-2.7,26.1-6.4,26.1-10.4v-1.7c1.8-1.3,2.7-2.6,2.6-4,0-1.2-.9-2.3-2.4-3.4-.6-.4-.9-1.1-.9-1.8v-30.7c0-.6.3-1.3.8-1.7,1.8-1.5,2.8-3.3,2.8-5.3,0-7.9-16.6-12.4-35.6-14.9l-1-18.4c2-1,3.3-2,3.8-3.1.9-.8,1.4-1.6,1.4-2.5s-.6-2-1.9-2.9c-.3-.2-.5-.6-.5-1.1v-21.7c0-.4.2-.8.6-1.1,1.9-1.4,2.9-3.1,2.9-5,0-4.6-5.4-7.7-17.5-10.1v-9.6c20.6,1.3,41.1,3.6,61.4,6.8l8.6,1.4c.8,0,1.4.8,1.4,1.6v153.4h-.1ZM232.5,211.9c4.5-1,9.1-2.2,12.9-3.9.8-.4,1.7.2,1.7,1.1v25.7c0,.9-.9,1.5-1.7,1.2-3.4-1.3-7.7-2.5-12.9-3.6-.6-.1-1-.6-1-1.2v-18.1c0-.6.4-1.1,1-1.2h0ZM231.6,204.2v-9.5c0-.8.8-1.4,1.5-1.2,9.3,2.2,13.1,4.4,14.2,5.6h-.2v1c-1.3,1.2-5.2,3.3-14,5.4-.8.2-1.5-.4-1.5-1.2h0Z"/>
  <g>
    <path class="st0" d="M419.4,128.4h-4.4c-1.2-3.5-3.1-7.2-5.7-11.1-2.6-4-5-6.1-7.2-6.4-1.2-.2-2.7-.3-4.5-.4-1.8-.1-3.3-.2-4.6-.2h-2.7v63.4c0,1.4.2,2.6.7,3.6.5,1,1.5,1.9,2.9,2.5.9.3,2.2.7,4.1,1.1,1.8.4,3.4.6,4.7.8v4.4h-45.1v-4.4c1.1-.1,2.7-.3,4.6-.5,2-.2,3.4-.5,4.1-.8,1.5-.6,2.5-1.4,3-2.5.5-1,.7-2.2.7-3.6v-64h-2.7c-1.3,0-2.8,0-4.6.2-1.8.1-3.3.2-4.5.4-2.2.3-4.6,2.4-7.2,6.4-2.6,4-4.5,7.7-5.7,11.1h-4.4v-23.1h78.4v23.1Z"/>
    <path class="st0" d="M553.8,109.8c-1.2.1-2.4.4-3.5.8-1.2.4-2.3.9-3.5,1.5-1.7,1-3,2.1-3.7,3.2-.7,1.2-1.4,2.6-2,4.3-2.1,5.8-5.3,15-9.7,27.8-4.4,12.7-8.9,26-13.6,39.7h-11.5l-21.3-60.1-19.2,60.1h-11.5c-6.3-18.5-11.2-32.7-14.6-42.7-3.4-10-6.2-18.3-8.6-25.1-.7-2.1-1.5-3.5-2.5-4.5-.9-.9-2.1-1.9-3.5-2.8-1-.7-2.1-1.2-3.3-1.5-1.2-.3-2.5-.6-4-.8v-4.4h43.2v4.3c-2.5.3-4.4.6-5.7.9-1.3.3-2.2.6-3,.9-.7.3-1.1.6-1.3,1-.2.3-.2.6-.2.9,0,.5,0,1,.2,1.5.1.5.3,1.1.4,1.7.9,3,2.8,8.6,5.5,16.9s6.2,18.5,10.3,30.8l18.4-58.9h12.1l21.3,60.8c3.2-9.8,5.7-17.7,7.6-23.9,1.9-6.2,3.5-11.5,4.8-15.9.8-2.7,1.4-5,1.8-6.8.5-1.8.7-3.4.7-4.7s-.4-1.5-1.1-2.1c-.7-.6-1.7-1.1-3-1.5-1.1-.3-2.4-.6-4.1-.8-1.7-.2-3.2-.4-4.4-.5v-4.6h32.5v4.6Z"/>
    <path class="st0" d="M630.3,114.3c4,3.6,7.2,8.1,9.5,13.2,2.3,5.2,3.5,11.1,3.5,17.7s-1,11.5-3,16.8-4.8,9.9-8.6,13.7c-3.9,4-8.5,7.1-13.8,9.3-5.3,2.2-11.6,3.3-18.9,3.3s-11.5-1-16.7-2.9c-5.2-1.9-9.9-4.8-13.9-8.4-4-3.6-7.1-8-9.4-13.2-2.3-5.2-3.5-10.9-3.5-17.3s1.1-12.6,3.4-18c2.3-5.4,5.4-10,9.3-13.8,3.9-3.8,8.6-6.7,13.9-8.7,5.4-2,11.1-3,17.2-3s11.7,1,17,3c5.3,2,9.9,4.7,13.8,8.3ZM615.7,172.2c1.7-3.5,2.9-7.4,3.7-11.8s1.1-9.3,1.1-14.8-.3-9.2-1-13.7c-.7-4.4-1.8-8.4-3.4-11.8-1.6-3.5-3.8-6.2-6.5-8.3-2.7-2.1-6.1-3.1-10.1-3.1-6.9,0-12.1,3.3-15.7,9.8-3.6,6.5-5.4,15.7-5.4,27.7s.4,9.8,1.2,14.3c.8,4.5,2,8.4,3.7,11.8,1.7,3.4,3.9,6,6.5,7.9s5.9,2.8,9.7,2.8,7-1,9.7-2.9c2.7-1.9,4.8-4.5,6.4-7.8Z"/>
    <path class="st0" d="M757,160.2l-1.6,25.9h-74.5v-4.4c1.3-.1,2.9-.3,4.7-.5,1.8-.2,3-.5,3.5-.7,1.4-.5,2.3-1.3,2.9-2.2.5-.9.8-2.2.8-3.6v-57.1c0-1.4-.2-2.5-.6-3.4-.4-.9-1.4-1.7-3-2.4-1.2-.5-2.6-1-4.2-1.3-1.7-.3-3-.6-4-.7v-4.4h44.4v4.4c-1.2.1-2.7.3-4.3.5-1.7.2-3.1.5-4.3.9-1.5.5-2.5,1.3-3,2.3-.5,1-.7,2.2-.7,3.6v53.2c0,2.5.2,4.5.5,5.9.3,1.4,1,2.5,2,3.2,1,.7,2.4,1.2,4.1,1.4,1.8.2,4.2.3,7.3.3s6-.2,8.9-.5c2.9-.4,4.9-1.1,6.2-2.4,1.9-1.9,3.9-4.7,6-8.2,2-3.5,3.7-6.7,4.9-9.7h4.2Z"/>
    <path class="st0" d="M805.5,186.2h-44.9v-4.4c1,0,2.5-.2,4.5-.3,2-.2,3.4-.4,4.1-.7,1.4-.6,2.4-1.3,2.9-2.3.5-.9.8-2.1.8-3.6v-57.3c0-1.3-.2-2.4-.7-3.4-.5-1-1.5-1.8-2.9-2.4-.9-.4-2.3-.8-4-1.2-1.8-.4-3.3-.7-4.6-.8v-4.4h44.9v4.4c-1.1.1-2.6.3-4.3.5-1.7.2-3.2.5-4.3.9-1.5.5-2.5,1.3-3,2.3-.5,1-.7,2.2-.7,3.6v57.3c0,1.4.3,2.5.8,3.5.5,1,1.5,1.8,2.9,2.4.8.3,2.1.7,4,1,1.8.3,3.4.5,4.6.6v4.4Z"/>
    <path class="st0" d="M903.1,153.3c-1.2.1-2.2.2-3.1.4-.9.2-2.1.5-3.4.9-1.6.5-2.6,1.3-3.1,2.5-.5,1.1-.7,2.3-.7,3.6v9.4c0,1.9,0,3.4,0,4.6s0,2.6.2,4.3c-3.8,2.3-9.4,4.4-16.8,6.4-7.4,2-14.3,3-20.5,3s-11.3-.9-16.5-2.7c-5.1-1.8-9.6-4.5-13.5-8-3.9-3.5-6.9-7.9-9.1-13.2-2.2-5.2-3.3-11.3-3.3-18s1-12.2,3.1-17.5c2.1-5.4,5.1-10,9.1-13.9,3.9-3.8,8.6-6.8,14.2-8.9,5.6-2.1,11.7-3.1,18.5-3.1s8.9.6,12.8,1.7,7.1,2.4,9.7,3.6l3.5-3.1h5l.5,29.5h-5c-2.9-8.9-6.3-15.5-10.4-19.8-4-4.3-9.1-6.5-15.3-6.5s-12.9,3.2-16.9,9.6-6,15.2-6,26.4,1.9,21.2,5.8,28c3.9,6.7,9.4,10.1,16.6,10.1s6.3-.5,8.9-1.5c2.6-1,4.6-2.2,6.1-3.5v-16.4c0-1.4-.2-2.5-.7-3.4-.5-.9-1.5-1.7-3-2.4-1.1-.5-2.6-1-4.3-1.3-1.7-.3-3.1-.6-4.3-.7v-4.4h42v4.4Z"/>
    <path class="st0" d="M1006,186.2h-43.7v-4.4c1,0,2.3-.2,4.2-.3,1.8-.2,3.1-.4,3.8-.7,1.4-.6,2.4-1.3,2.9-2.3.5-.9.8-2.1.8-3.6v-27.9h-34.5v27.2c0,1.3.3,2.5.8,3.5.5,1,1.5,1.8,2.8,2.4.7.3,2,.6,3.7,1s3.2.6,4.3.6v4.4h-43.7v-4.4c.9,0,2.3-.2,4.2-.4,1.8-.2,3.2-.5,4-.8,1.4-.5,2.3-1.2,2.9-2.3.5-1,.8-2.2.8-3.6v-57.2c0-1.3-.2-2.5-.7-3.4-.5-.9-1.5-1.7-2.9-2.4-1.1-.5-2.5-.9-4.3-1.3-1.8-.4-3.1-.6-3.9-.7v-4.4h43.7v4.4c-1.2,0-2.6.3-4.2.6-1.6.3-2.9.6-3.8.9-1.5.5-2.5,1.3-2.9,2.4-.5,1.1-.7,2.2-.7,3.4v24.2h34.5v-23.6c0-1.3-.2-2.5-.7-3.4-.5-.9-1.5-1.7-3-2.4s-2.3-.9-4-1.3c-1.7-.4-3-.7-4-.8v-4.4h43.7v4.4c-1.2,0-2.6.2-4.1.5-1.5.2-2.9.6-4.1.9-1.4.5-2.4,1.3-2.9,2.3-.5,1.1-.7,2.2-.7,3.5v57.3c0,1.4.2,2.5.7,3.5.5,1,1.5,1.7,2.9,2.4.9.4,2.2.7,4,1,1.7.3,3.1.5,4.2.6v4.4Z"/>
    <path class="st0" d="M1089,128.4h-4.4c-1.2-3.5-3.1-7.2-5.7-11.1-2.6-4-5-6.1-7.2-6.4-1.2-.2-2.7-.3-4.5-.4-1.8-.1-3.3-.2-4.6-.2h-2.7v63.4c0,1.4.2,2.6.7,3.6.5,1,1.5,1.9,2.9,2.5.9.3,2.2.7,4.1,1.1,1.8.4,3.4.6,4.7.8v4.4h-45.1v-4.4c1.1-.1,2.7-.3,4.6-.5,2-.2,3.4-.5,4.1-.8,1.5-.6,2.5-1.4,3-2.5.5-1,.7-2.2.7-3.6v-64h-2.7c-1.3,0-2.8,0-4.6.2-1.8.1-3.3.2-4.5.4-2.2.3-4.6,2.4-7.2,6.4-2.6,4-4.5,7.7-5.7,11.1h-4.4v-23.1h78.4v23.1Z"/>
    <path class="st0" d="M1127.6,188.4c-4.9,0-9.5-.6-13.8-1.9-4.3-1.2-7.9-2.7-10.9-4.4l-3.9,4h-4.8l-.7-29.2h4.9c1.1,2.8,2.5,5.7,4.2,8.8s3.7,5.8,5.9,8.3c2.3,2.6,4.9,4.6,7.8,6.2s6.2,2.4,10.1,2.4,9.1-1.3,11.9-3.8c2.8-2.5,4.1-5.7,4.1-9.6s-1.2-5.8-3.5-8c-2.3-2.1-6-4-10.9-5.6-3.2-1-6.1-2-8.8-2.9-2.7-.9-5.2-1.8-7.6-2.7-5.4-2.2-9.5-5.3-12.1-9.3-2.6-4-4-8.5-4-13.5s.7-6.2,2.1-9.1,3.4-5.5,6-7.8c2.5-2.2,5.7-3.9,9.6-5.3s8.2-2.1,12.8-2.1,8.7.6,12.6,1.9c3.9,1.3,7,2.5,9.2,3.8l3.5-3.4h5l.5,27.6h-4.9c-1.1-3-2.5-6-4-9.1-1.5-3.1-3.2-5.7-4.9-7.7-1.9-2.2-4-4-6.4-5.3-2.4-1.3-5.3-2-8.6-2s-7.5,1.2-10.1,3.5c-2.6,2.3-3.9,5.2-3.9,8.6s1.1,5.9,3.4,7.9,5.8,3.9,10.6,5.4c2.8,1,5.7,1.9,8.6,2.9,2.9,1,5.5,1.9,7.8,2.7,5.5,2.1,9.7,5.1,12.6,8.8,2.9,3.7,4.3,8.4,4.3,14s-.8,6.9-2.5,10.2c-1.6,3.3-3.8,6-6.6,8.2-3,2.4-6.6,4.2-10.5,5.5s-8.6,1.9-14,1.9Z"/>
  </g>
  <g>
    <path class="st0" d="M403.6,231c0,2.6-.5,4.9-1.5,6.8s-2.4,3.6-4.2,4.9c-1.8,1.3-3.7,2.3-5.8,2.9-2.1.6-4.4.9-6.7.9h-5.5v15c0,.8.1,1.5.4,2.1.3.6.8,1.1,1.7,1.4.4.2,1.2.3,2.2.5,1.1.1,2,.2,2.9.2v2.5h-21.2v-2.5c.6,0,1.4-.1,2.4-.2s1.8-.3,2.2-.5c.7-.3,1.2-.7,1.5-1.3s.5-1.3.5-2.2v-35.7c0-.8-.1-1.5-.3-2.2-.2-.7-.8-1.1-1.6-1.5-.9-.3-1.8-.5-2.6-.6s-1.6-.2-2.2-.3v-2.5h22.6c4.6,0,8.3,1.1,11.2,3.3,2.9,2.2,4.3,5.2,4.3,8.9ZM393,239.5c.8-1.1,1.3-2.3,1.6-3.5.3-1.2.4-2.3.4-3.2s-.2-2.7-.5-4c-.3-1.4-.9-2.6-1.6-3.6-.8-1.1-1.9-1.9-3.2-2.5-1.3-.6-3-.9-4.9-.9h-4.9v21.8h3.6c2.5,0,4.5-.4,6.1-1.2,1.6-.8,2.7-1.7,3.5-2.9Z"/>
    <path class="st0" d="M457.4,268.3h-13.3c-2.9-4.6-5.6-8.6-8-12-2.4-3.4-5-6.8-7.7-10.4h-5.1v15.7c0,.8.1,1.5.4,2.1.3.6.8,1.1,1.6,1.4.4.2,1.2.3,2.2.5,1,.1,1.9.2,2.6.2v2.5h-20.9v-2.5c.6,0,1.4-.1,2.4-.2s1.8-.3,2.2-.5c.7-.3,1.2-.7,1.5-1.3s.5-1.3.5-2.2v-35.8c0-.8-.1-1.5-.3-2.2-.2-.6-.8-1.1-1.6-1.4-.6-.2-1.3-.4-2.3-.6s-1.7-.3-2.4-.3v-2.5h22.8c2.1,0,4.1.2,5.9.6,1.8.4,3.5,1.1,5,2.1,1.4.9,2.6,2.1,3.5,3.6.9,1.5,1.3,3.3,1.3,5.4s-.3,3.6-.9,5.1-1.4,2.7-2.6,3.8c-1,1-2.3,1.9-3.8,2.6-1.5.7-3.1,1.4-4.8,1.9,2.4,3.2,4.5,5.9,6.1,8.2,1.6,2.2,3.6,4.9,5.9,8,1,1.4,1.9,2.4,2.8,3.1.8.7,1.6,1.2,2.5,1.6.6.3,1.4.5,2.3.7.9.2,1.7.3,2.3.3v2.5ZM439.1,231.4c0-3-.9-5.4-2.6-7.1-1.7-1.8-4.1-2.6-7.3-2.6h-5.9v21.2h4.6c3.2,0,5.9-1,8-3.1,2.1-2.1,3.2-4.8,3.2-8.4Z"/>
    <path class="st0" d="M481,268.3h-22.3v-2.5c.6,0,1.5-.1,2.7-.2,1.2,0,2-.2,2.5-.4.8-.3,1.3-.7,1.7-1.2.3-.5.5-1.2.5-2.2v-35.8c0-.8-.1-1.5-.4-2-.3-.5-.9-1-1.8-1.4-.7-.3-1.6-.5-2.6-.8s-1.9-.4-2.6-.4v-2.5h22.3v2.5c-.7,0-1.6.1-2.6.3-1,.2-1.9.3-2.6.6-.9.3-1.5.7-1.8,1.4-.3.6-.5,1.3-.5,2.1v35.8c0,.8.2,1.4.5,2s.9,1.1,1.7,1.4c.5.2,1.3.4,2.4.6,1.1.2,2,.3,2.8.4v2.5Z"/>
    <path class="st0" d="M532.8,221.3c-.6,0-1.3.2-2.2.4-.9.2-1.6.5-2.1.9-.8.5-1.4,1.1-1.9,1.9s-.9,1.7-1.4,2.7c-1.6,3.7-3.9,9.4-7,17.3-3.1,7.8-6.3,16-9.6,24.4h-2.9c-3.3-9-6.6-17.7-9.7-26-3.1-8.3-5.2-14-6.3-16.9-.3-.7-.7-1.4-1.1-1.9-.5-.5-1.1-1.1-1.8-1.6-.6-.4-1.3-.7-2.1-.9-.8-.2-1.5-.3-2.1-.4v-2.5h20.5v2.5c-1.7,0-3.2.3-4.4.5-1.2.3-1.8.7-1.8,1.4s0,.6.1.9c0,.3.2.6.2.8.9,2.3,2.3,6,4.2,11.1,1.9,5.1,4.7,12.5,8.2,22,1.8-4.3,3.8-9.4,6.1-15.2,2.3-5.9,3.8-9.9,4.6-12.1.8-2.1,1.2-3.6,1.3-4.4.1-.8.2-1.5.2-2s-.2-1-.7-1.3c-.5-.4-1.1-.7-1.9-.9-.8-.2-1.5-.4-2.3-.5-.8-.1-1.6-.2-2.4-.3v-2.5h18.4v2.5Z"/>
    <path class="st0" d="M580.8,268.3h-20.6v-2.5c1.8-.1,3.3-.3,4.5-.7s1.8-.8,1.8-1.3,0-.5,0-.8c0-.3-.1-.6-.2-.8l-4.1-11.1h-17.4c-.7,1.6-1.2,3-1.6,4.3-.4,1.2-.8,2.3-1.1,3.3-.3,1-.5,1.8-.6,2.4s-.2,1.1-.2,1.5c0,.9.7,1.7,2.2,2.2,1.5.5,3.1.8,4.9.9v2.5h-18.6v-2.5c.6,0,1.4-.2,2.3-.4.9-.2,1.6-.5,2.2-.9.9-.6,1.6-1.3,2.2-2,.5-.7,1-1.6,1.5-2.8,2.5-6.2,5.2-13.2,8.2-20.9,3-7.7,5.7-14.6,8-20.7h2.8l16.5,42.7c.3.9.7,1.6,1.2,2.2s1.1,1.1,1.8,1.6c.5.3,1.2.6,2.1.8.9.2,1.6.3,2.2.4v2.5ZM560.9,248.1l-7.5-19.2-7.4,19.2h14.9Z"/>
    <path class="st0" d="M622.8,232.3h-2.4c-.2-.8-.6-1.8-1.1-3s-1.2-2.2-1.8-3.3c-.7-1.1-1.5-2-2.3-2.8s-1.6-1.3-2.4-1.4c-.7,0-1.6-.2-2.7-.2-1.1,0-2.1,0-3,0h-2v39.6c0,.8.2,1.5.5,2.1.3.6.9,1.1,1.7,1.5.4.2,1.3.4,2.6.7,1.3.3,2.4.4,3.1.5v2.5h-23.3v-2.5c.7,0,1.6-.1,3-.3s2.3-.3,2.8-.5c.8-.3,1.3-.7,1.7-1.3.4-.6.5-1.3.5-2.3v-39.9h-2c-.7,0-1.6,0-2.7,0-1.1,0-2.1.1-3.1.2-.8,0-1.6.6-2.4,1.4-.8.8-1.6,1.8-2.3,2.8-.7,1-1.3,2.2-1.8,3.3-.5,1.2-.9,2.1-1.1,2.9h-2.4v-13.4h43.1v13.4Z"/>
    <path class="st0" d="M668.3,253.7l-.9,14.6h-41.1v-2.5c.7,0,1.6-.1,2.8-.3,1.2-.2,1.9-.3,2.3-.5.7-.3,1.3-.8,1.6-1.4.3-.6.4-1.3.4-2.1v-35.5c0-.8-.1-1.4-.4-2-.3-.6-.8-1.1-1.6-1.4-.6-.3-1.5-.6-2.5-.8-1.1-.2-1.9-.4-2.5-.4v-2.5h38.3v11.9h-2.6c-.5-1.8-1.5-3.6-3-5.6-1.5-2-3-3.1-4.4-3.3-.7,0-1.6-.2-2.6-.2-1,0-2.1,0-3.4,0h-7.8v19.7h5.6c1.8,0,3.1-.2,3.9-.5.8-.3,1.6-.9,2.2-1.7.5-.7.9-1.6,1.3-2.7.4-1.1.6-2.2.7-3.2h2.6v19.4h-2.6c0-1.1-.3-2.3-.7-3.5-.4-1.2-.8-2.1-1.3-2.7-.7-.9-1.5-1.5-2.5-1.8-.9-.3-2.1-.4-3.6-.4h-5.6v14.8c0,1.5.1,2.7.3,3.5s.6,1.5,1.2,1.9c.6.4,1.4.7,2.5.9,1,.1,2.5.2,4.5.2h3c1.3,0,2.3,0,3.2-.1.9,0,1.8-.3,2.7-.5.9-.2,1.6-.6,2-1,1.1-1.1,2.2-2.8,3.4-5.1,1.2-2.3,1.9-3.9,2.2-5h2.5Z"/>
    <path class="st0" d="M757.9,221.3c-.6,0-1.3.2-2,.4-.8.2-1.5.6-2.1,1-.8.5-1.5,1.1-2,1.8-.5.7-.9,1.6-1.3,2.8-1.7,5.4-3.6,11.6-5.8,18.8-2.2,7.2-4.5,14.8-7.1,22.9h-3.2l-12.5-38.1-13,38.1h-3.1c-2.3-8.1-4.7-16.6-7.1-25.3-2.5-8.7-4.1-14.6-4.9-17.6-.2-.7-.5-1.4-.9-1.9-.4-.6-1-1.1-1.7-1.5-.6-.4-1.3-.7-2-.9s-1.5-.3-2.1-.4v-2.5h20.2v2.5c-1.8,0-3.3.3-4.5.5-1.2.3-1.9.7-1.9,1.3s0,.5.1.9c0,.4.1.7.2.9.5,2,1.5,5.4,2.8,10.1s3.4,11.8,6,21.2l12.3-36.8h3.4l12.5,37.5c1.7-5.8,3.1-10.8,4.3-15.1,1.2-4.3,2.2-8,3-11.1.6-2.2.9-3.6,1-4.4s.2-1.5.2-2c0-.8-.5-1.5-1.6-2-1.1-.5-2.8-.9-5.2-1.1v-2.5h17.9v2.5Z"/>
    <path class="st0" d="M801.8,253.7l-.9,14.6h-41.1v-2.5c.7,0,1.6-.1,2.8-.3,1.2-.2,1.9-.3,2.3-.5.7-.3,1.3-.8,1.6-1.4.3-.6.4-1.3.4-2.1v-35.5c0-.8-.1-1.4-.4-2-.3-.6-.8-1.1-1.6-1.4-.6-.3-1.5-.6-2.5-.8-1.1-.2-1.9-.4-2.5-.4v-2.5h38.3v11.9h-2.6c-.5-1.8-1.5-3.6-3-5.6-1.5-2-3-3.1-4.4-3.3-.7,0-1.6-.2-2.6-.2-1,0-2.1,0-3.4,0h-7.8v19.7h5.6c1.8,0,3.1-.2,3.9-.5.8-.3,1.6-.9,2.2-1.7.5-.7.9-1.6,1.3-2.7.4-1.1.6-2.2.7-3.2h2.6v19.4h-2.6c0-1.1-.3-2.3-.7-3.5-.4-1.2-.8-2.1-1.3-2.7-.7-.9-1.5-1.5-2.5-1.8-.9-.3-2.1-.4-3.6-.4h-5.6v14.8c0,1.5.1,2.7.3,3.5s.6,1.5,1.2,1.9c.6.4,1.4.7,2.5.9,1,.1,2.5.2,4.5.2h3c1.3,0,2.3,0,3.2-.1.9,0,1.8-.3,2.7-.5.9-.2,1.6-.6,2-1,1.1-1.1,2.2-2.8,3.4-5.1,1.2-2.3,1.9-3.9,2.2-5h2.5Z"/>
    <path class="st0" d="M853,268.3h-20.6v-2.5c1.8-.1,3.3-.3,4.5-.7s1.8-.8,1.8-1.3,0-.5,0-.8c0-.3-.1-.6-.2-.8l-4.1-11.1h-17.4c-.7,1.6-1.2,3-1.6,4.3-.4,1.2-.8,2.3-1.1,3.3-.3,1-.5,1.8-.6,2.4-.1.6-.2,1.1-.2,1.5,0,.9.7,1.7,2.2,2.2,1.5.5,3.1.8,4.9.9v2.5h-18.6v-2.5c.6,0,1.4-.2,2.3-.4.9-.2,1.6-.5,2.2-.9.9-.6,1.6-1.3,2.2-2,.5-.7,1-1.6,1.5-2.8,2.5-6.2,5.2-13.2,8.2-20.9s5.7-14.6,8-20.7h2.8l16.5,42.7c.3.9.7,1.6,1.2,2.2s1.1,1.1,1.8,1.6c.5.3,1.2.6,2.1.8.9.2,1.6.3,2.2.4v2.5ZM833.1,248.1l-7.5-19.2-7.4,19.2h14.9Z"/>
    <path class="st0" d="M894.4,253.6l-1,14.7h-38.6v-2.5c.6,0,1.4-.1,2.4-.2,1.1-.1,1.8-.3,2.2-.5.7-.3,1.2-.7,1.5-1.3.3-.6.5-1.3.5-2.2v-35.4c0-.8-.1-1.5-.4-2.1-.3-.6-.8-1.1-1.6-1.5-.5-.3-1.3-.6-2.2-.8-1-.3-1.8-.4-2.4-.5v-2.5h20.9v2.5c-.7,0-1.5.1-2.5.3-1,.2-1.8.4-2.2.6-.8.3-1.3.8-1.6,1.4-.3.7-.4,1.4-.4,2.2v33.2c0,1.5,0,2.7.2,3.6.2.8.5,1.5,1.1,2,.5.4,1.3.7,2.4.8,1.1.1,2.5.2,4.4.2s1.8,0,2.7,0c.9,0,1.8-.1,2.6-.3.8-.1,1.6-.3,2.2-.6.7-.2,1.2-.6,1.5-.9,1-1.1,2.1-2.7,3.3-4.9,1.3-2.2,2.1-3.9,2.6-5.3h2.5Z"/>
    <path class="st0" d="M938,232.3h-2.4c-.2-.8-.6-1.8-1.1-3-.5-1.2-1.2-2.2-1.8-3.3-.7-1.1-1.5-2-2.3-2.8-.8-.8-1.6-1.3-2.4-1.4-.7,0-1.6-.2-2.7-.2-1.1,0-2.1,0-3,0h-2v39.6c0,.8.2,1.5.5,2.1s.9,1.1,1.7,1.5c.4.2,1.3.4,2.6.7,1.3.3,2.4.4,3.1.5v2.5h-23.3v-2.5c.7,0,1.6-.1,3-.3s2.3-.3,2.8-.5c.8-.3,1.3-.7,1.7-1.3.4-.6.5-1.3.5-2.3v-39.9h-2c-.7,0-1.6,0-2.7,0-1.1,0-2.1.1-3.1.2-.8,0-1.6.6-2.4,1.4s-1.6,1.8-2.3,2.8c-.7,1-1.3,2.2-1.8,3.3-.5,1.2-.9,2.1-1.1,2.9h-2.4v-13.4h43.1v13.4Z"/>
    <path class="st0" d="M993.2,268.3h-20.5v-2.5c.6,0,1.4-.1,2.4-.2,1.1,0,1.8-.2,2.2-.4.7-.3,1.2-.7,1.5-1.3s.5-1.3.5-2.2v-17.6h-23.2v17.2c0,.8.1,1.5.4,2.1.3.6.8,1,1.6,1.5.4.2,1.1.4,2.1.6,1,.2,1.8.3,2.4.3v2.5h-20.5v-2.5c.6,0,1.4-.1,2.4-.2,1.1,0,1.8-.2,2.2-.4.7-.3,1.2-.7,1.5-1.3.3-.6.5-1.3.5-2.2v-35.7c0-.7-.2-1.4-.5-2-.3-.6-.8-1.1-1.6-1.4-.6-.3-1.4-.6-2.3-.8-.9-.2-1.7-.4-2.3-.4v-2.5h20.5v2.5c-.7,0-1.4.1-2.4.3-.9.2-1.6.4-2.1.5-.8.3-1.3.7-1.6,1.4-.3.7-.4,1.4-.4,2.1v15.3h23.2v-15c0-.7-.2-1.4-.5-2-.3-.6-.8-1.1-1.6-1.4-.6-.3-1.4-.6-2.3-.8-.9-.2-1.7-.4-2.3-.4v-2.5h20.5v2.5c-.7,0-1.4.1-2.4.3-.9.2-1.6.4-2.1.5-.8.3-1.3.7-1.6,1.4-.3.7-.4,1.4-.4,2.1v35.6c0,.8.1,1.5.4,2.1.3.6.8,1,1.6,1.5.4.2,1.1.4,2.1.6,1,.2,1.8.3,2.4.3v2.5Z"/>
  </g>
</svg>